<svg width="125" height="125" viewBox="0 0 125 125" fill="none" xmlns="http://www.w3.org/2000/svg">
<path d="M62.4171 29.6426C63.4259 29.4795 65.0392 28.375 66.0876 27.943C77.5497 23.2195 90.7652 24.0989 101.308 31.183C109.863 36.9545 115.755 45.9082 117.67 56.0492C119.621 66.2005 117.449 76.711 111.633 85.2564C105.959 93.6799 97.1364 99.4676 87.151 101.316C80.8656 102.532 74.0533 101.826 68.0103 99.7084C66.7861 99.2793 65.5946 98.6833 64.4138 98.1548C64.1209 98.0236 62.8414 97.4007 62.6251 97.3517C61.6849 97.7324 60.7682 98.2443 59.8314 98.6576C55.4053 100.61 50.8034 101.692 45.9588 101.891C36.3144 102.226 26.9176 98.7983 19.7536 92.3328C11.9732 85.2529 7.38205 75.3307 7.02201 64.8174C6.67987 54.5663 10.3376 44.5839 17.222 36.9807C23.954 29.7256 33.287 25.4342 43.1767 25.0465C48.9979 24.8348 54.7868 26 60.0727 28.4475C60.5509 28.6687 62.0962 29.3457 62.4171 29.6426Z" fill="#C0EECF"></path>
<path d="M62.6251 97.3519C61.6849 97.7325 60.7682 98.2444 59.8314 98.6577C55.4053 100.61 50.8034 101.692 45.9588 101.892C36.3144 102.226 26.9176 98.7984 19.7536 92.3329C11.9732 85.253 7.38205 75.3308 7.02201 64.8176C6.67987 54.5665 10.3376 44.584 17.222 36.9809C23.954 29.7257 33.287 25.4344 43.1767 25.0467C48.9979 24.835 54.7868 26.0002 60.0727 28.4476C60.5509 28.6688 62.0962 29.3458 62.4171 29.6428L62.1839 29.8609C61.0727 30.3432 59.9341 31.0743 58.9182 31.7478C43.9192 41.6932 37.443 61.2202 44.5936 77.9204C48.1757 86.2861 54.2799 93.154 62.4724 97.2887C62.5166 97.3109 62.5769 97.3211 62.6251 97.3309V97.3519Z" fill="#F4C5CE"></path>
<path d="M62.1839 29.8609C63.0036 29.6774 64.0792 30.4264 64.7705 30.8651C73.8552 36.6313 80.3576 44.6989 82.7242 55.3514C84.8409 65.2176 82.9412 75.5204 77.445 83.9828C74.6661 88.3391 70.8274 92.0394 66.5987 94.978C66.0771 95.3405 63.0094 97.2656 62.6251 97.3309C62.5769 97.3211 62.5165 97.311 62.4723 97.2887C54.2798 93.1541 48.1757 86.2862 44.5936 77.9204C37.443 61.2203 43.9192 41.6933 58.9182 31.7479C59.9341 31.0743 61.0726 30.3433 62.1839 29.8609Z" fill="#ABBDEB"></path>
<path d="M71.4256 55.1927C72.5123 55.1244 73.1104 55.3339 73.8886 56.1344C75.6913 57.9887 73.6659 59.5811 72.4944 60.891L69.0647 64.6957C66.7028 67.3284 64.3669 70.1022 61.8616 72.6081C60.9323 73.5377 60.292 73.4193 59.0359 73.3733C57.7337 72.626 55.0436 69.607 53.8332 68.3747C52.8704 67.4306 51.158 66.046 50.89 64.6771C50.5343 63.4493 51.7238 61.7113 53.0214 61.6792C55.6071 61.6152 58.0117 65.5716 59.9416 67.0433C61.0202 66.111 61.8444 64.9366 62.7882 63.8858C63.9832 62.6018 65.154 61.2615 66.3517 59.9847C67.8342 58.4045 69.4013 56.0263 71.4256 55.1927Z" fill="white"></path>
</svg>