<svg width="100" height="100" viewBox="0 0 100 100" fill="none" xmlns="http://www.w3.org/2000/svg">
<path d="M42.0171 49.2174L48.3028 56L58.0171 43" stroke="#3182F7" stroke-width="4" stroke-linecap="round" stroke-linejoin="round"></path>
<path d="M40.9829 17C43.9343 17 46.7948 17.3894 49.5171 18.1162C35.4288 21.8777 25.0513 34.7261 25.0513 50C25.0513 65.2738 35.4289 78.1212 49.5171 81.8828C46.7947 82.6097 43.9344 83 40.9829 83C22.7575 83 7.98291 68.2254 7.98291 50C7.98291 31.7746 22.7575 17 40.9829 17Z" fill="#FBC4C9"></path>
<path d="M58 21C74.0163 21 87 33.9837 87 50C87 66.0163 74.0163 79 58 79C56.6437 79 55.3097 78.9038 54.0029 78.7236C65.6269 74.3709 73.9032 63.1648 73.9033 50.0215C73.9033 36.8476 65.5893 25.6173 53.9229 21.2861C55.2551 21.0987 56.6161 21 58 21Z" fill="#7FE0A8" fill-opacity="0.92"></path>
</svg>